# xmcd CD database file
#
# Track frame offsets:
#	150
#	16666
#	27483
#	44238
#	58151
#	69504
#	82310
#	93624
#	106540
#	121594
#
# Disc length: 1813 seconds
#
# Revision: 0
# Processed by: cddbd v1.5PL3 Copyright (c) Steve Scherf et al.
# Submitted via: Feurio! 1.67 - http://www.feurio.com
#
DISCID=8207130a
DTITLE=Johnny Lee - Lookin' For Love
DYEAR=1980
DGENRE=Country
TTITLE0=Lookin' For Love
TTITLE1=Pickin' Up Strangers
TTITLE2=Dreams Die Hard
TTITLE3=Down And Dirty
TTITLE4=Fool For Love
TTITLE5=One In A Million
TTITLE6=Anni
TTITLE7=Do You Love As Good As You Look
TTITLE8=Too Damned Old
TTITLE9=Prisoner Of Hope
EXTD=Arrangement: Jim Ed Norman for HIN-JEN Productions - Track 1 (p) by John 
EXTD=Boylan\r\nKommentar: (c)1980 Elektra/Asylum Records, CA/ A Division of 
EXTD=Warner Communications Inc. \r\nKatalog: Asylum 6E-309\r\n\r\n
EXTT0=
EXTT1=
EXTT2=
EXTT3=
EXTT4=
EXTT5=
EXTT6=
EXTT7=
EXTT8=
EXTT9=
PLAYORDER=
